<?xml version="1.0" encoding="UTF-8"?>
<!-- Generator: Adobe Illustrator 16.0.3, SVG Export Plug-In . SVG Version: 6.00 Build 0)  -->
<!DOCTYPE svg PUBLIC "-//W3C//DTD SVG 1.1//EN" "http://www.w3.org/Graphics/SVG/1.1/DTD/svg11.dtd">
<svg version="1.1" id="Layer_1" xmlns="http://www.w3.org/2000/svg" xmlns:xlink="http://www.w3.org/1999/xlink" x="0px" y="0px" width="170.75px" height="38.167px" viewBox="0 0 170.75 38.167" enable-background="new 0 0 170.75 38.167" xml:space="preserve">
<path fill="#43B02A" d="M51.524,25.854l6.378-13.823c0.056-0.112,0.168-0.225,0.337-0.225h0.196c0.197,0,0.281,0.113,0.337,0.225  l6.322,13.823c0.112,0.253-0.028,0.534-0.337,0.534h-1.742c-0.309,0-0.45-0.113-0.59-0.422l-1.012-2.219h-6.152l-1.012,2.219  c-0.084,0.197-0.253,0.422-0.59,0.422h-1.798C51.581,26.388,51.412,26.107,51.524,25.854 M60.403,21.471l-2.051-4.523h-0.056  l-2.023,4.523H60.403z"/>
<path fill="#43B02A" d="M67.033,12.171c0-0.197,0.197-0.365,0.393-0.365h0.506l8.541,9.074h0.028v-8.484  c0-0.197,0.169-0.395,0.394-0.395h1.882c0.197,0,0.393,0.197,0.393,0.395v13.822c0,0.197-0.196,0.365-0.393,0.365h-0.506  l-8.597-9.412h-0.028v8.822c0,0.197-0.169,0.394-0.393,0.394H67.37c-0.197,0-0.393-0.196-0.393-0.394V12.171H67.033z"/>
<path fill="#43B02A" d="M81.025,25.854l6.377-13.823c0.057-0.112,0.168-0.225,0.338-0.225h0.195c0.197,0,0.281,0.113,0.338,0.225  l6.322,13.823c0.111,0.253-0.029,0.534-0.338,0.534h-1.742c-0.309,0-0.449-0.113-0.59-0.422l-1.012-2.219h-6.152l-1.012,2.219  c-0.084,0.197-0.253,0.422-0.59,0.422h-1.798C81.053,26.388,80.912,26.107,81.025,25.854 M89.902,21.471l-2.051-4.523h-0.056  l-2.023,4.523H89.902z"/>
<path fill="#43B02A" d="M102.771,11.806c2.078,0,3.567,0.646,4.973,1.911c0.197,0.168,0.197,0.421,0.027,0.561l-1.264,1.293  c-0.141,0.168-0.337,0.168-0.506,0c-0.871-0.759-2.023-1.208-3.175-1.208c-2.642,0-4.579,2.191-4.579,4.776  c0,2.557,1.966,4.748,4.607,4.748c1.235,0,2.275-0.478,3.146-1.181c0.169-0.14,0.393-0.111,0.506,0l1.264,1.321  c0.17,0.14,0.112,0.421-0.027,0.562c-1.405,1.349-3.176,1.994-5.001,1.994c-4.103,0-7.417-3.258-7.417-7.36  C95.354,15.093,98.668,11.806,102.771,11.806"/>
<path fill="#43B02A" d="M116.734,11.806c4.102,0,7.389,3.315,7.389,7.417c0,4.103-3.287,7.36-7.389,7.36  c-4.103,0-7.361-3.258-7.361-7.36C109.373,15.093,112.632,11.806,116.734,11.806 M116.734,23.916c2.584,0,4.72-2.107,4.72-4.692  s-2.136-4.748-4.72-4.748c-2.586,0-4.692,2.163-4.692,4.748S114.148,23.916,116.734,23.916"/>
<path fill="#43B02A" d="M126.82,12.171c0-0.197,0.197-0.365,0.393-0.365h0.506l8.541,9.074h0.028v-8.484  c0-0.197,0.169-0.395,0.394-0.395h1.883c0.197,0,0.393,0.197,0.393,0.395v13.822c0,0.197-0.195,0.365-0.393,0.365h-0.506  l-8.598-9.412h-0.027v8.822c0,0.197-0.17,0.394-0.394,0.394h-1.883c-0.197,0-0.394-0.196-0.394-0.394V12.171H126.82z"/>
<path fill="#43B02A" d="M142.693,12.396c0-0.197,0.17-0.393,0.365-0.393h4.861c3.961,0,7.221,3.231,7.221,7.164  c0,3.991-3.231,7.22-7.221,7.22h-4.861c-0.195,0-0.365-0.196-0.365-0.394V12.396L142.693,12.396z M147.667,23.887  c2.669,0,4.608-2.022,4.608-4.691s-1.939-4.692-4.608-4.692h-2.332v9.384L147.667,23.887L147.667,23.887z"/>
<path fill="#43B02A" d="M155.843,25.854l6.378-13.823c0.057-0.112,0.168-0.225,0.338-0.225h0.195c0.197,0,0.281,0.113,0.337,0.225  l6.322,13.823c0.112,0.253-0.028,0.534-0.337,0.534h-1.799c-0.309,0-0.449-0.113-0.59-0.422l-1.012-2.219h-6.152l-1.012,2.219  c-0.084,0.197-0.281,0.422-0.59,0.422h-1.798C155.898,26.388,155.73,26.107,155.843,25.854 M164.721,21.471l-2.051-4.523h-0.057  l-2.022,4.523H164.721z"/>
<path fill="#43B02A" d="M5.413,24.126c-0.59,1.18-1.068,2.416-1.461,3.681c1.321,0.364,2.641,0.618,3.99,0.729  c0.028-1.068,0.112-2.078,0.252-3.09C7.239,25.082,6.312,24.632,5.413,24.126"/>
<path fill="#43B02A" d="M10.835,10.527c-0.787,0-1.545,0.056-2.332,0.169c0.112,0.786,0.225,1.545,0.422,2.331  c0.533-0.898,1.18-1.713,1.91-2.444V10.527z"/>
<path fill="#43B02A" d="M4.485,29.042c1.011,1.545,2.276,2.922,3.709,4.074c-0.141-1.209-0.253-2.361-0.253-3.513  C6.79,29.521,5.638,29.324,4.485,29.042"/>
<path fill="#43B02A" d="M13.617,2.296c-1.405,0.478-2.697,1.124-3.933,1.91c0.927,0.169,1.826,0.366,2.725,0.647  C12.773,3.981,13.167,3.139,13.617,2.296"/>
<path fill="#43B02A" d="M19.404,1.34c-0.702,0-1.377,0.056-2.051,0.112c0.955,0.675,1.854,1.377,2.725,2.164l0.703,0.646  l-0.703,0.674c-0.59,0.562-1.152,1.152-1.685,1.798l-0.029,0.028c0,0-0.112,0.113-0.28,0.309c0.421-0.056,0.842-0.056,1.292-0.056  c6.715,0,12.165,5.451,12.165,12.166c0,6.714-5.45,12.165-12.165,12.165c-2.332,0-4.523-0.646-6.378-1.798  c-0.927,0.111-1.826,0.168-2.753,0.168c-0.422,0-0.843,0-1.293-0.028c0.029,1.377,0.169,2.81,0.394,4.299  c2.866,1.938,6.293,3.062,10.002,3.062c9.861,0,17.869-8.006,17.869-17.867C37.273,9.348,29.294,1.34,19.404,1.34"/>
<path fill="#43B02A" d="M17.044,5.555c0.365-0.421,0.73-0.843,1.096-1.236c-0.843-0.703-1.714-1.377-2.641-1.939  c-0.562,0.955-1.068,1.967-1.489,2.978c0.814,0.309,1.601,0.646,2.36,1.012C16.735,5.92,16.96,5.639,17.044,5.555"/>
<path fill="#43B02A" d="M7.014,10.921c-1.32,0.225-2.613,0.59-3.877,1.04c0.506,1.292,1.152,2.556,1.882,3.736  c0.843-0.59,1.714-1.152,2.613-1.629C7.351,13.028,7.154,11.989,7.014,10.921"/>
<path fill="#43B02A" d="M4.682,17.664c-0.955,0.787-1.854,1.63-2.697,2.585c0.927,0.814,1.91,1.545,2.95,2.219  c0.477-0.844,1.011-1.686,1.573-2.473C5.862,19.237,5.244,18.479,4.682,17.664"/>
<path fill="#43B02A" d="M9.233,25.869L9.233,25.869c-0.112,0.898-0.197,1.825-0.225,2.78c0.899,0.058,1.798,0.058,2.697,0  C10.75,27.863,9.908,26.908,9.233,25.869"/>
<path fill="#43B02A" d="M11.847,6.397C10.723,6.089,9.57,5.836,8.418,5.696C8.306,6.876,8.306,8.028,8.39,9.179  c0.927-0.112,1.826-0.168,2.754-0.168C11.313,8.14,11.538,7.269,11.847,6.397"/>
<path fill="#43B02A" d="M13.42,6.932c-0.225,0.674-0.421,1.349-0.59,2.023c0.787-0.506,1.63-0.927,2.5-1.236  C14.712,7.438,14.066,7.156,13.42,6.932"/>
<path fill="#43B02A" d="M1.704,21.597c0.225,1.742,0.702,3.4,1.405,4.917c0.365-1.04,0.786-2.022,1.264-3.007  C3.446,22.946,2.547,22.298,1.704,21.597"/>
<path fill="#43B02A" d="M6.817,6.51c-1.067,1.068-1.995,2.248-2.78,3.54c0.927-0.281,1.854-0.506,2.809-0.674  C6.79,8.449,6.79,7.493,6.817,6.51"/>
<path fill="#43B02A" d="M5.778,16.821c0.45,0.646,0.955,1.292,1.489,1.911c0.056-1.124,0.225-2.192,0.562-3.231  C7.098,15.922,6.424,16.372,5.778,16.821"/>
<path fill="#43B02A" d="M5.975,23.058c0.759,0.422,1.517,0.814,2.332,1.152c-0.478-1.041-0.787-2.135-0.955-3.315  C6.874,21.597,6.396,22.328,5.975,23.058"/>
<path fill="#43B02A" d="M3.924,16.512c-0.562-0.898-1.068-1.826-1.517-2.81c-0.506,1.574-0.815,3.259-0.843,4.973  C2.293,17.917,3.081,17.186,3.924,16.512"/>
</svg>